<svg id="Layer_1" data-name="Layer 1" xmlns="http://www.w3.org/2000/svg" viewBox="0 0 840 485"><defs><style>.cls-1{fill:#eecde2;}.cls-2,.cls-3{fill:#662d91;}.cls-3{stroke:#662d91;}.cls-3,.cls-4{stroke-miterlimit:10;}.cls-4{fill:#fff;stroke:#fff;}</style></defs><rect class="cls-1" x="0.16" y="0.03" width="840" height="485"/><rect class="cls-2" x="384.58" y="29.5" width="71.05" height="839.9" transform="translate(869.56 29.34) rotate(90)"/><path class="cls-2" d="M335.77,324.47h69.68V219H429l50.17,105.5H560L498.63,206.22a86.67,86.67,0,0,0,29.39-24,696.69,696.69,0,0,0-192.25,1.1Z"/><path class="cls-2" d="M47.64,324.47h72.29a186.16,186.16,0,0,1,82.55-72.71l8-3.56,23.78,76.27h72.87L261.29,198.6a557.42,557.42,0,0,0-60.29,20l-13.48,5.56C128,249.75,79.64,284.24,47.64,324.47Z"/><path class="cls-2" d="M694.16,326.86c34.64,0,58.53-11.14,79.24-31.85a87.22,87.22,0,0,0,9.3-11,367.32,367.32,0,0,0-56.5-38.81A34.09,34.09,0,0,1,722,252c-5.18,6.77-15.13,12.74-27.87,12.74s-22.7-6-27.88-12.74c-4.83-6.34-8.29-13.19-9.67-38.7a576.87,576.87,0,0,0-70.37-20.67c0,38.84,1.14,74.84,28.67,102.37C635.62,315.72,659.51,326.86,694.16,326.86Z"/><path class="cls-2" d="M158.42,209.2l20.45-60.71,15,47.62c19.36-6.45,39.52-12.1,60.3-17L204,41H150.19L73.42,252A535.79,535.79,0,0,1,158.42,209.2Z"/><path class="cls-2" d="M405.45,159V103.5h39.43c19.1,0,30.26,13.94,30.26,28.67a28.08,28.08,0,0,1-18.49,26.55,815.72,815.72,0,0,1,81.68,6.07,82.32,82.32,0,0,0,6.49-32.62C544.82,85.58,511,41,448.06,41H335.77v123.6C358.49,161.8,381.74,159.9,405.45,159Z"/><path class="cls-2" d="M797.18,114.57c-1.37-5.48-6.85-27.39-23.78-44.12C752.56,49.88,728.8,38.6,694.16,38.6s-58.54,11.15-79.25,31.85c-27.41,27.42-28.65,63.23-28.67,101.87A715.88,715.88,0,0,1,656,189.18c0-2.1,0-4.18,0-6.45,0-51.76,4-61.31,10.35-69.68,5.18-6.76,15.13-12.34,27.88-12.34A37,37,0,0,1,722,113.05a40.41,40.41,0,0,1,8,16.59Z"/><path class="cls-3" d="M44.09,378.36H30.68L26.08,390H23.53L36.8,356.88h1.46l13,33.13H48.67Zm-12.57-2.07h11.8l-4.49-11.9c-.38-.93-.83-2.22-1.36-3.88a34.63,34.63,0,0,1-1.33,3.93Z"/><path class="cls-3" d="M79.93,390H77.6l-19.54-29.3h-.18q.27,5.25.27,7.9V390H55.94V357h2.3l19.52,29.25h.14q-.21-4.06-.21-7.72V357h2.24Z"/><path class="cls-3" d="M105.16,378.36H91.75L87.15,390H84.6l13.27-33.13h1.47l13,33.13h-2.6Zm-12.57-2.07h11.8l-4.49-11.9c-.37-.93-.83-2.22-1.35-3.88a36.73,36.73,0,0,1-1.33,3.93Z"/><path class="cls-3" d="M117,390V357h2.3v30.83H135V390Z"/><path class="cls-3" d="M148.31,375.07,158,357h2.49l-11,20.25V390h-2.37V377.44l-11-20.43h2.64Z"/><path class="cls-3" d="M185.24,390H162.31v-1.72l19.32-29.11H163.19V357h21.53v1.72l-19.37,29.11h19.89Z"/><path class="cls-3" d="M209.79,390h-18V357h18v2.13H194.06v12.47h14.85v2.13H194.06v14.15h15.73Z"/><path class="cls-3" d="M216.25,388.25q0-2.22,1.8-2.22c1.24,0,1.85.74,1.85,2.22s-.61,2.21-1.85,2.21S216.25,389.72,216.25,388.25Z"/><path class="cls-3" d="M230.56,375.63V390h-2.31V357h7.86c4.09,0,7.12.76,9.07,2.27s2.94,3.79,2.94,6.83a8.92,8.92,0,0,1-1.75,5.59,9.74,9.74,0,0,1-5.32,3.28l9,15h-2.75l-8.51-14.38Zm0-2h6.29a10,10,0,0,0,6.48-1.87,6.62,6.62,0,0,0,2.3-5.49q0-3.77-2.25-5.48T236,359.09h-5.46Z"/><path class="cls-3" d="M273.75,390h-18V357h18v2.13H258v12.47h14.85v2.13H258v14.15h15.73Z"/><path class="cls-3" d="M299.44,381.5a7.9,7.9,0,0,1-3,6.54,12.58,12.58,0,0,1-8.07,2.42,25.41,25.41,0,0,1-9.27-1.33v-2.3a23.63,23.63,0,0,0,9.09,1.51,10.16,10.16,0,0,0,6.45-1.87,5.91,5.91,0,0,0,2.38-4.88,5.68,5.68,0,0,0-.79-3.1,7.29,7.29,0,0,0-2.58-2.25,30.92,30.92,0,0,0-5.23-2.19q-5.06-1.74-7-3.76a7.48,7.48,0,0,1-1.93-5.38,7.39,7.39,0,0,1,2.9-6,11.52,11.52,0,0,1,7.46-2.34,21.94,21.94,0,0,1,8.74,1.76l-.84,2a20.24,20.24,0,0,0-7.85-1.72,9.24,9.24,0,0,0-5.82,1.69,5.53,5.53,0,0,0-2.17,4.61,6,6,0,0,0,.67,3,6.11,6.11,0,0,0,2.17,2.11,30.19,30.19,0,0,0,5.19,2.24,27.53,27.53,0,0,1,5.8,2.59,8.27,8.27,0,0,1,2.84,2.84A7.8,7.8,0,0,1,299.44,381.5Z"/><path class="cls-3" d="M324.44,390h-18V357h18v2.13H308.71v12.47h14.86v2.13H308.71v14.15h15.73Z"/><path class="cls-3" d="M347.8,378.36H334.4L329.79,390h-2.55l13.27-33.13H342L355,390h-2.59Zm-12.57-2.07H347l-4.49-11.9c-.38-.93-.83-2.22-1.36-3.88a34.63,34.63,0,0,1-1.33,3.93Z"/><path class="cls-3" d="M362,375.63V390h-2.31V357h7.86q6.14,0,9.07,2.27c2,1.51,2.93,3.79,2.93,6.83a8.92,8.92,0,0,1-1.74,5.59,9.74,9.74,0,0,1-5.32,3.28l9,15h-2.75l-8.51-14.38Zm0-2h6.29a10,10,0,0,0,6.48-1.87,6.65,6.65,0,0,0,2.3-5.49q0-3.77-2.25-5.48t-7.36-1.72H362Z"/><path class="cls-3" d="M401.2,358.62q-6.19,0-9.77,4t-3.56,10.88q0,7,3.36,11t9.61,3.91a26.3,26.3,0,0,0,7.63-1.06v2a25.06,25.06,0,0,1-8.17,1.15q-6.94,0-10.94-4.49t-4-12.55a19.69,19.69,0,0,1,1.91-8.87,13.78,13.78,0,0,1,5.48-5.92,16.24,16.24,0,0,1,8.32-2.09,19.85,19.85,0,0,1,8.64,1.81l-.92,2.07A16.81,16.81,0,0,0,401.2,358.62Z"/><path class="cls-3" d="M439.73,390h-2.32V373.78H418.13V390h-2.3V357h2.3v14.65h19.28V357h2.32Z"/><path class="cls-3" d="M448.06,388.25q0-2.22,1.8-2.22c1.24,0,1.85.74,1.85,2.22s-.61,2.21-1.85,2.21S448.06,389.72,448.06,388.25Z"/><path class="cls-3" d="M474.15,358.62q-6.21,0-9.77,4t-3.57,10.88q0,7,3.36,11t9.62,3.91a26.3,26.3,0,0,0,7.63-1.06v2a25.17,25.17,0,0,1-8.18,1.15q-6.94,0-10.94-4.49t-4-12.55a19.69,19.69,0,0,1,1.91-8.87,13.74,13.74,0,0,1,5.49-5.92,16.18,16.18,0,0,1,8.31-2.09,19.92,19.92,0,0,1,8.65,1.81l-.93,2.07A16.77,16.77,0,0,0,474.15,358.62Z"/><path class="cls-3" d="M491.07,375.63V390h-2.3V357h7.86q6.14,0,9.07,2.27c2,1.51,2.93,3.79,2.93,6.83a8.86,8.86,0,0,1-1.75,5.59,9.67,9.67,0,0,1-5.31,3.28l9,15h-2.75l-8.51-14.38Zm0-2h6.3a10,10,0,0,0,6.48-1.87,6.65,6.65,0,0,0,2.3-5.49q0-3.77-2.26-5.48t-7.35-1.72h-5.47Z"/><path class="cls-3" d="M534.27,390h-18V357h18v2.13H518.54v12.47h14.85v2.13H518.54v14.15h15.73Z"/><path class="cls-3" d="M557.63,378.36h-13.4L539.62,390h-2.55l13.27-33.13h1.47l13,33.13h-2.59Zm-12.57-2.07h11.81l-4.49-11.9c-.38-.93-.83-2.22-1.36-3.88a36.73,36.73,0,0,1-1.33,3.93Z"/><path class="cls-3" d="M578.08,390h-2.32V359.18H565V357H588.8v2.17H578.08Z"/><path class="cls-3" d="M611.73,390h-18V357h18v2.13H596v12.47h14.85v2.13H596v14.15h15.73Z"/><path class="cls-3" d="M618.19,388.25q0-2.22,1.8-2.22c1.24,0,1.85.74,1.85,2.22s-.61,2.21-1.85,2.21S618.19,389.72,618.19,388.25Z"/><path class="cls-3" d="M654.46,357v21.35q0,5.68-3.3,8.89T642,390.46q-5.73,0-9-3.22t-3.22-9V357h2.33v21.35a10.06,10.06,0,0,0,2.64,7.42c1.76,1.76,4.25,2.65,7.47,2.65s5.58-.87,7.31-2.61a9.8,9.8,0,0,0,2.59-7.23V357Z"/><path class="cls-3" d="M685.63,390H682.8l-12.66-17.42-4.4,3.88V390h-2.3V357h2.3v17.15l3.66-3.65L682.33,357h2.93L671.75,371Z"/><path class="cls-3" d="M692.6,375.63V390h-2.3V357h7.85c4.09,0,7.12.76,9.07,2.27s2.94,3.79,2.94,6.83a8.86,8.86,0,0,1-1.75,5.59,9.74,9.74,0,0,1-5.32,3.28l9,15H709.3l-8.51-14.38Zm0-2h6.3a10,10,0,0,0,6.47-1.87,6.63,6.63,0,0,0,2.31-5.49c0-2.51-.76-4.34-2.26-5.48s-4-1.72-7.36-1.72H692.6Z"/><path class="cls-3" d="M733.65,378.36h-13.4L715.64,390h-2.55l13.27-33.13h1.47l13,33.13h-2.59Zm-12.57-2.07h11.81l-4.49-11.9c-.38-.93-.83-2.22-1.36-3.88a36.73,36.73,0,0,1-1.33,3.93Z"/><path class="cls-3" d="M745.5,390V357h2.3v33Z"/><path class="cls-3" d="M781.14,390h-2.32l-19.55-29.3h-.18q.27,5.25.27,7.9V390h-2.21V357h2.3L779,386.26h.14q-.21-4.06-.21-7.72V357h2.24Z"/><path class="cls-3" d="M808.52,390h-18V357h18v2.13H792.79v12.47h14.85v2.13H792.79v14.15h15.73Z"/><path class="cls-4" d="M645.92,458.55l-.53-3.64h-.18a11,11,0,0,1-3.57,3.14,9.64,9.64,0,0,1-4.34.92,7.51,7.51,0,0,1-5.28-1.73,6.21,6.21,0,0,1-1.89-4.81,5.9,5.9,0,0,1,2.81-5.22c1.87-1.24,4.59-1.89,8.14-2l4.39-.13v-1.53a7.78,7.78,0,0,0-1.34-4.94,5.16,5.16,0,0,0-4.31-1.67,14.49,14.49,0,0,0-6.64,1.77l-.78-1.82a17.65,17.65,0,0,1,7.51-1.77q3.8,0,5.67,2c1.26,1.32,1.88,3.36,1.88,6.14v15.29Zm-8.49-1.48a7.93,7.93,0,0,0,5.82-2.11,7.84,7.84,0,0,0,2.14-5.84v-2.27l-4,.17q-4.86.24-6.93,1.51a4.37,4.37,0,0,0-2.07,4,4.29,4.29,0,0,0,1.33,3.35A5.4,5.4,0,0,0,637.43,457.07Z"/><path class="cls-4" d="M664,435.12a17.89,17.89,0,0,1,3.14.29l-.4,2a12.44,12.44,0,0,0-3-.36,5.8,5.8,0,0,0-4.84,2.5,10.12,10.12,0,0,0-1.89,6.3v12.69h-2.1v-23h1.79l.21,4.15h.15a9.75,9.75,0,0,1,3-3.57A7.18,7.18,0,0,1,664,435.12Z"/><path class="cls-4" d="M681.05,459a9.9,9.9,0,0,1-7.74-3.11q-2.8-3.11-2.8-8.67t2.91-8.89a10.23,10.23,0,0,1,8-3.18,16,16,0,0,1,5.73,1l-.57,1.86a16.92,16.92,0,0,0-5.2-1,7.91,7.91,0,0,0-6.43,2.61c-1.46,1.74-2.18,4.25-2.18,7.52,0,3.1.72,5.53,2.18,7.28a7.51,7.51,0,0,0,6.11,2.64,15,15,0,0,0,5.84-1.13v1.95A13.25,13.25,0,0,1,681.05,459Z"/><path class="cls-4" d="M694.32,435.56v14.89q0,3.46,1.46,5a5.93,5.93,0,0,0,4.54,1.58c2.75,0,4.77-.7,6.06-2.08s1.94-3.63,1.94-6.74V435.56h2.08v23h-1.78l-.38-3.18h-.13c-1.5,2.4-4.16,3.6-8,3.6q-7.87,0-7.87-8.4v-15Z"/><path class="cls-4" d="M732.14,458.55l-.53-3.64h-.18a11,11,0,0,1-3.57,3.14,9.64,9.64,0,0,1-4.34.92,7.53,7.53,0,0,1-5.28-1.73,6.21,6.21,0,0,1-1.89-4.81,5.9,5.9,0,0,1,2.81-5.22c1.87-1.24,4.59-1.89,8.14-2l4.39-.13v-1.53a7.78,7.78,0,0,0-1.34-4.94A5.16,5.16,0,0,0,726,437a14.49,14.49,0,0,0-6.64,1.77l-.78-1.82a17.65,17.65,0,0,1,7.51-1.77q3.79,0,5.68,2c1.25,1.32,1.87,3.36,1.87,6.14v15.29Zm-8.49-1.48a7.93,7.93,0,0,0,5.82-2.11,7.84,7.84,0,0,0,2.14-5.84v-2.27l-4,.17q-4.86.24-6.92,1.51a4.36,4.36,0,0,0-2.08,4,4.29,4.29,0,0,0,1.33,3.35A5.4,5.4,0,0,0,723.65,457.07Z"/><path class="cls-4" d="M740.73,456.9c0-1.39.57-2.07,1.7-2.07s1.74.68,1.74,2.07-.58,2.07-1.74,2.07S740.73,458.28,740.73,456.9Z"/><path class="cls-4" d="M770.57,447c0,3.75-.92,6.68-2.74,8.79a9.46,9.46,0,0,1-7.56,3.16,9.81,9.81,0,0,1-5.34-1.46,9.35,9.35,0,0,1-3.55-4.19,15.2,15.2,0,0,1-1.23-6.3c0-3.75.92-6.67,2.74-8.76a9.42,9.42,0,0,1,7.51-3.14,9.27,9.27,0,0,1,7.46,3.18C769.66,440.42,770.57,443.33,770.57,447Zm-18.21,0c0,3.16.69,5.62,2.09,7.39a7.9,7.9,0,0,0,11.82,0q2.09-2.66,2.09-7.39c0-3.17-.71-5.63-2.11-7.38a7.19,7.19,0,0,0-5.93-2.62,7.08,7.08,0,0,0-5.89,2.61C753.05,441.37,752.36,443.84,752.36,447Z"/><path class="cls-4" d="M786,435.12a17.89,17.89,0,0,1,3.14.29l-.4,2a12.44,12.44,0,0,0-3-.36,5.82,5.82,0,0,0-4.84,2.5,10.12,10.12,0,0,0-1.89,6.3v12.69H777v-23h1.79l.21,4.15h.15a9.75,9.75,0,0,1,3-3.57A7.18,7.18,0,0,1,786,435.12Z"/><path class="cls-4" d="M811.86,435.56V437l-4.77.3a8.1,8.1,0,0,1,1.91,5.2,7,7,0,0,1-2.22,5.38,8.41,8.41,0,0,1-5.95,2.06,12.33,12.33,0,0,1-2.21-.13,5.41,5.41,0,0,0-1.91,1.55,3.1,3.1,0,0,0-.66,1.88,1.75,1.75,0,0,0,.84,1.61,5.85,5.85,0,0,0,2.81.5h4a9.38,9.38,0,0,1,5.75,1.52,5.26,5.26,0,0,1,2,4.47,6.36,6.36,0,0,1-3,5.61q-3,2-8.44,2a11.66,11.66,0,0,1-6.73-1.67,5.37,5.37,0,0,1-2.39-4.65,5.51,5.51,0,0,1,1.48-3.94,7.62,7.62,0,0,1,4-2.13,4.11,4.11,0,0,1-1.67-1.26,3,3,0,0,1-.63-1.87c0-1.54,1-2.89,3-4.06a6.57,6.57,0,0,1-3.14-2.59,7.38,7.38,0,0,1-1.12-4A7.28,7.28,0,0,1,795,437.2a8.28,8.28,0,0,1,5.93-2.08,11.21,11.21,0,0,1,3.53.44Zm-18.67,26.88c0,3.16,2.35,4.74,7.07,4.74q9.07,0,9.08-5.78a3.33,3.33,0,0,0-1.42-3,8.72,8.72,0,0,0-4.61-.93h-3.78C795.3,457.47,793.19,459.12,793.19,462.44ZM795,442.73a5.28,5.28,0,0,0,1.62,4.13,7.29,7.29,0,0,0,8.77,0,5.57,5.57,0,0,0,1.54-4.23,5.74,5.74,0,0,0-1.58-4.4,6.22,6.22,0,0,0-4.43-1.47,5.46,5.46,0,0,0-5.92,6Z"/></svg>